<?xml version="1.0" encoding="utf-8"?>
<!-- Generator: Adobe Illustrator 16.0.0, SVG Export Plug-In . SVG Version: 6.00 Build 0)  -->
<!DOCTYPE svg PUBLIC "-//W3C//DTD SVG 1.1//EN" "http://www.w3.org/Graphics/SVG/1.1/DTD/svg11.dtd">
<svg version="1.1" id="Vrstva_1" xmlns="http://www.w3.org/2000/svg" xmlns:xlink="http://www.w3.org/1999/xlink" x="0px" y="0px"
	 width="113.39px" height="56.69px" viewBox="0 0 113.39 56.69" enable-background="new 0 0 113.39 56.69" xml:space="preserve">
<g>
	<g>
		<g>
			<g>
				<g>
					<path fill="#FFFFFF" d="M74.765,34.455c0,2.303-3.491,2.303-3.491,0C71.273,32.151,74.765,32.151,74.765,34.455z"/>
				</g>
			</g>
			<g>
				<g>
					<path fill="#FFFFFF" d="M87.684,19.027c0,0.459-0.696,0.459-0.696,0S87.684,18.567,87.684,19.027z M87.04,19.689v2.395h0.59
						v-2.395H87.04z"/>
					<path fill="#FFFFFF" d="M90.888,22.084v-1.248c0-0.363-0.198-0.638-0.575-0.638c-0.363,0-0.609,0.305-0.609,0.667v1.219h-0.586
						v-2.39h0.527l0.039,0.324c0.241-0.237,0.483-0.358,0.783-0.358c0.562,0,1.011,0.421,1.011,1.17v1.253H90.888z"/>
					<path fill="#FFFFFF" d="M93.688,19.027v0.677h0.658v0.508h-0.663v1.03c0,0.228,0.126,0.339,0.31,0.339
						c0.092,0,0.198-0.029,0.285-0.073l0.165,0.503c-0.17,0.068-0.31,0.097-0.489,0.102c-0.518,0.02-0.855-0.275-0.855-0.871v-1.03
						h-0.445v-0.508h0.445V19.09L93.688,19.027z"/>
					<path fill="#FFFFFF" d="M96.259,21.102c0.039,0.295,0.295,0.508,0.711,0.508c0.218,0,0.503-0.082,0.639-0.222l0.378,0.372
						c-0.252,0.261-0.663,0.387-1.026,0.387c-0.822,0-1.311-0.508-1.311-1.272c0-0.725,0.493-1.248,1.268-1.248
						c0.798,0,1.296,0.493,1.204,1.475H96.259z M97.556,20.613c-0.039-0.31-0.281-0.464-0.619-0.464
						c-0.319,0-0.581,0.154-0.668,0.464H97.556z"/>
					<path fill="#FFFFFF" d="M100.095,19.699l0.043,0.276c0.185-0.295,0.431-0.339,0.673-0.339c0.246,0,0.483,0.097,0.614,0.228
						l-0.266,0.513c-0.121-0.102-0.232-0.155-0.426-0.155c-0.31,0-0.596,0.165-0.596,0.604v1.258h-0.59v-2.385H100.095z"/>
					<path fill="#FFFFFF" d="M103.262,19.027c0,0.459-0.696,0.459-0.696,0S103.262,18.567,103.262,19.027z M102.618,19.689v2.395
						h0.59v-2.395H102.618z"/>
					<path fill="#FFFFFF" d="M107.133,20.894c0,0.687-0.469,1.243-1.243,1.243c-0.773,0-1.238-0.556-1.238-1.243
						c0-0.682,0.475-1.243,1.233-1.243C106.645,19.651,107.133,20.212,107.133,20.894z M105.241,20.894
						c0,0.363,0.218,0.701,0.648,0.701s0.648-0.338,0.648-0.701c0-0.358-0.252-0.706-0.648-0.706
						C105.464,20.188,105.241,20.536,105.241,20.894z"/>
					<path fill="#FFFFFF" d="M109.058,19.699l0.043,0.276c0.185-0.295,0.431-0.339,0.673-0.339c0.246,0,0.483,0.097,0.614,0.228
						l-0.266,0.513c-0.121-0.102-0.232-0.155-0.426-0.155c-0.31,0-0.596,0.165-0.596,0.604v1.258h-0.59v-2.385H109.058z"/>
					<path fill="#FFFFFF" d="M89.517,23.563v3.381h-0.552l-0.038-0.329c-0.184,0.286-0.479,0.382-0.77,0.382
						c-0.701,0-1.229-0.464-1.229-1.248c0-0.822,0.518-1.248,1.214-1.248c0.252,0,0.644,0.136,0.784,0.382v-1.32H89.517z
						 M87.519,25.749c0,0.416,0.301,0.702,0.678,0.702c0.372,0,0.691-0.271,0.691-0.702c0-0.416-0.319-0.696-0.691-0.696
						C87.819,25.053,87.519,25.318,87.519,25.749z"/>
					<path fill="#FFFFFF" d="M91.558,25.962c0.039,0.295,0.295,0.508,0.711,0.508c0.218,0,0.503-0.082,0.639-0.223l0.378,0.373
						c-0.252,0.261-0.663,0.387-1.026,0.387c-0.822,0-1.311-0.508-1.311-1.272c0-0.726,0.493-1.248,1.268-1.248
						c0.798,0,1.296,0.493,1.204,1.475H91.558z M92.854,25.474c-0.039-0.31-0.281-0.465-0.619-0.465
						c-0.319,0-0.581,0.155-0.668,0.465H92.854z"/>
					<path fill="#FFFFFF" d="M96.403,25.193c-0.169-0.16-0.362-0.213-0.59-0.213c-0.281,0-0.436,0.087-0.436,0.237
						c0,0.155,0.141,0.242,0.445,0.261c0.449,0.029,1.021,0.131,1.021,0.765c0,0.42-0.344,0.783-1.025,0.783
						c-0.378,0-0.755-0.063-1.104-0.425l0.291-0.421c0.169,0.188,0.556,0.329,0.822,0.333c0.222,0.005,0.43-0.111,0.43-0.285
						c0-0.165-0.135-0.232-0.474-0.251c-0.45-0.034-0.986-0.198-0.986-0.74c0-0.551,0.57-0.745,1.006-0.745
						c0.372,0,0.653,0.072,0.929,0.314L96.403,25.193z"/>
					<path fill="#FFFFFF" d="M98.836,23.887c0,0.459-0.696,0.459-0.696,0S98.836,23.427,98.836,23.887z M98.192,24.549v2.395h0.59
						v-2.395H98.192z"/>
					<path fill="#FFFFFF" d="M102.156,24.317l0.436,0.329l-0.267,0.338c0.185,0.208,0.252,0.445,0.252,0.706
						c0,0.295-0.111,0.711-0.503,0.89c0.396,0.198,0.493,0.484,0.493,0.789c0,0.658-0.503,1.064-1.194,1.064
						c-0.692,0-1.21-0.421-1.21-1.064h0.586c0,0.31,0.285,0.513,0.624,0.513c0.338,0,0.604-0.184,0.604-0.513
						c0-0.329-0.31-0.479-0.604-0.479c-0.745,0-1.21-0.455-1.21-1.2c0-0.745,0.542-1.209,1.21-1.209
						c0.188,0,0.382,0.024,0.546,0.135L102.156,24.317z M100.749,25.691c0,0.416,0.28,0.663,0.624,0.663
						c0.338,0,0.619-0.251,0.619-0.663s-0.281-0.672-0.619-0.672C101.029,25.019,100.749,25.275,100.749,25.691z"/>
					<path fill="#FFFFFF" d="M105.682,26.944v-1.248c0-0.363-0.198-0.638-0.575-0.638c-0.363,0-0.609,0.305-0.609,0.667v1.219
						h-0.586v-2.39h0.527l0.039,0.324c0.241-0.237,0.483-0.358,0.783-0.358c0.562,0,1.011,0.421,1.011,1.17v1.253H105.682z"/>
				</g>
			</g>
			<g>
				<rect x="74.994" y="21.795" fill="#FFFFFF" width="3.201" height="5.115"/>
				<g>
					<path fill="#FFFFFF" d="M79.563,18.812c-1.518,0-3.039,0-4.569,0v2.983v5.115h3.201v-5.115h1.368h3.745v-2.983
						C82.063,18.812,80.813,18.812,79.563,18.812z"/>
				</g>
			</g>
		</g>
	</g>
	<g>
		<g>
			<g>
				<g>
					<path fill="#A5D12C" d="M11.568,36.055H8.248L1.193,19.013h3.589l5.113,13.213l5.14-13.213h3.588L11.568,36.055z"/>
					<path fill="#A5D12C" d="M27.068,25.679l0.097-1.648h2.837v11.951h-2.789l-0.145-1.746c-0.678,1.408-2.546,2.088-3.879,2.112
						c-3.54,0.022-6.158-2.159-6.158-6.354c0-4.122,2.74-6.278,6.231-6.254C24.862,23.74,26.39,24.491,27.068,25.679z
						 M23.529,26.382c-1.965,0-3.541,1.335-3.541,3.612c0,2.278,1.576,3.638,3.541,3.638C28.184,33.632,28.184,26.382,23.529,26.382
						z M26.898,18.771h-3.49l-1.795,3.296v0.146h2.618l2.667-3.322V18.771z"/>
					<path fill="#A5D12C" d="M44.784,24.006l-5.091,12.026h-3.198l-5.117-12.026h3.225l1.65,3.951L38.094,33l1.816-4.994l1.651-4
						H44.784z"/>
					<path fill="#A5D12C" d="M48.955,24.031l0.219,1.382c0.921-1.48,2.156-1.696,3.37-1.696c1.236,0,2.426,0.483,3.08,1.139
						l-1.333,2.569c-0.606-0.509-1.164-0.776-2.133-0.776c-1.552,0-2.982,0.825-2.982,3.032v6.302h-2.958V24.031H48.955z"/>
					<path fill="#A5D12C" d="M66.217,24.031h2.835v11.951h-2.785l-0.146-1.746c-0.679,1.408-2.545,2.088-3.879,2.112
						c-3.539,0.022-6.157-2.159-6.157-6.354c0-4.122,2.738-6.278,6.229-6.254c1.601,0,3.129,0.751,3.808,1.939L66.217,24.031z
						 M59.041,29.994c0,2.278,1.576,3.638,3.539,3.638c4.653,0,4.653-7.25,0-7.25C60.617,26.382,59.041,27.717,59.041,29.994z"/>
				</g>
			</g>
			<g>
				<g>
					<path fill="#A5D12C" d="M82.45,33.115c-0.021,0-0.038-0.004-0.056-0.004c0.014,0,0.027,0.004,0.043,0.004
						C82.44,33.115,82.445,33.115,82.45,33.115z"/>
					<path fill="#A5D12C" d="M82.504,33.111c0.216-0.001,0.422-0.015,0.62-0.041C82.923,33.09,82.725,33.111,82.504,33.111z"/>
					<path fill="#A5D12C" d="M81.776,33.07c0.198,0.026,0.401,0.04,0.618,0.041C82.177,33.111,81.978,33.09,81.776,33.07z"/>
					<path fill="#A5D12C" d="M82.504,33.111c-0.017,0-0.035,0.004-0.054,0.004c0.004,0,0.006,0,0.01,0
						C82.476,33.115,82.49,33.111,82.504,33.111z"/>
					<path fill="#A5D12C" d="M86.704,28.08v0.454c0,2.359-1.146,4.242-3.58,4.537c-0.198,0.026-0.404,0.04-0.62,0.041
						c-0.014,0-0.028,0.004-0.044,0.004c-0.004,0-0.006,0-0.01,0c-0.005,0-0.01,0-0.013,0c-0.016,0-0.029-0.004-0.043-0.004
						c-0.217-0.001-0.42-0.015-0.618-0.041c-2.436-0.295-3.581-2.178-3.581-4.537V28.08h-3.201v0.454
						c0,0.066,0.007,0.13,0.007,0.195c0.083,4.283,2.85,7.387,7.449,7.394c4.602-0.007,7.365-3.11,7.447-7.394
						c0-0.065,0.007-0.129,0.007-0.195V28.08H86.704z"/>
				</g>
			</g>
		</g>
	</g>
</g>
</svg>
